<?xml version="1.0" encoding="UTF-8"?>
<svg width="507px" height="327px" viewBox="0 0 507 327" version="1.1" xmlns="http://www.w3.org/2000/svg" xmlns:xlink="http://www.w3.org/1999/xlink">
    <!-- Generator: Sketch 46.2 (44496) - http://www.bohemiancoding.com/sketch -->
    <title>Group</title>
    <desc>Created with Sketch.</desc>
    <defs></defs>
    <g id="Page-1" stroke="none" stroke-width="1" fill="none" fill-rule="evenodd">
        <g id="Group" transform="translate(10.000000, 10.000000)" stroke="#FFFFFF" stroke-width="20">
            <path d="M409.814308,148.730334 C391.074441,63.2659173 323.719144,0 243.5,0 C162.043666,0 93.8510273,65.2324186 76.3534599,152.700281" id="Oval" stroke-linecap="round" stroke-linejoin="round"></path>
            <path d="M75.7062524,154.062195 C29.0706001,167.998536 0,187.682697 0,209.5 C0,251.749783 109.018663,286 243.5,286 L243.5,286 C377.981337,286 487,251.749783 487,209.5 C487,187.044716 456.204377,166.849151 407.157817,152.85445" id="Oval-2"></path>
            <path d="M77,154 L410.546746,154" id="Path-2"></path>
            <path d="M22.8921178,306.591552 L98.4128393,306.591552" id="Path-3" stroke-linecap="round"></path>
            <path d="M394,305 L469.520721,305" id="Path-3" stroke-linecap="round"></path>
            <path d="M64.1310668,298.757724 L92.3835022,269.777508" id="Path-4" stroke-linecap="round"></path>
            <path d="M64.1310668,298.757724 L92.3835022,269.777508" id="Path-4" stroke-linecap="round"></path>
            <path d="M416.811316,267.651818 L437.0156,298.916375" id="Path-5" stroke-linecap="round"></path>
            <path d="M8.24067353,199.608526 C77.6608482,223.198942 157.472652,234.420015 247.676086,233.271743 C337.879519,232.123472 415.922996,226.205353 481.806514,215.517387" id="Path-6"></path>
            <path d="M247.490818,43.2789311 C272.574832,42.5815659 289.588238,46.8032188 298.531034,55.9438898" id="Path-7" stroke-linecap="round"></path>
            <path d="M146.139542,122.245988 C154.747348,90.4897764 173.027505,69.0917291 200.980013,58.0518462" id="Path-8" stroke-linecap="round"></path>
        </g>
    </g>
</svg>